<?xml version="1.0" standalone="no"?>
<!DOCTYPE svg PUBLIC "-//W3C//DTD SVG 20010904//EN"
 "http://www.w3.org/TR/2001/REC-SVG-20010904/DTD/svg10.dtd">
<svg version="1.0" xmlns="http://www.w3.org/2000/svg"
 width="900.000000pt" height="900.000000pt" viewBox="0 0 900.000000 900.000000"
 preserveAspectRatio="xMidYMid meet">
<metadata>
Created by potrace 1.14, written by Peter Selinger 2001-2017
</metadata>
<g transform="translate(0.000000,900.000000) scale(0.100000,-0.100000)"
fill="#000000" stroke="none">
<path d="M5132 8880 c-167 -87 -305 -183 -411 -285 l-93 -90 6 -78 c17 -201
100 -450 208 -618 l35 -55 84 -20 c124 -28 433 -27 574 4 114 24 113 24 175
151 82 166 143 369 159 524 l8 82 -61 63 c-80 83 -225 200 -324 261 -91 57
-216 121 -234 121 -7 0 -64 -27 -126 -60z m150 2 c-5 -15 -3 -15 10 -4 14 11
23 10 57 -8 23 -11 41 -27 41 -35 0 -7 4 -17 10 -20 6 -4 7 1 3 11 -4 12 -2
15 8 12 8 -3 14 -11 14 -19 0 -20 14 -28 42 -23 15 3 22 0 21 -8 -2 -7 3 -13
10 -14 6 -1 17 -2 22 -3 6 0 10 -6 10 -12 0 -8 -6 -7 -17 2 -15 12 -16 12 -10
-3 4 -12 2 -18 -7 -18 -8 0 -16 9 -19 20 -3 11 -11 19 -18 18 -22 -5 -37 -22
-31 -37 4 -10 1 -12 -7 -7 -8 5 -10 18 -6 34 6 25 6 26 -13 9 -10 -9 -24 -17
-31 -17 -7 0 -9 -4 -6 -10 3 -5 -1 -10 -9 -10 -21 0 -20 16 2 30 16 11 16 11
0 6 -10 -3 -18 -1 -18 4 0 11 13 14 44 10 11 -1 15 3 12 9 -4 6 -14 11 -22 11
-8 0 -13 4 -9 9 3 5 1 12 -5 16 -6 4 -8 10 -5 15 3 5 -8 7 -25 5 -21 -3 -28
-1 -24 7 4 7 3 8 -5 4 -6 -4 -9 -11 -6 -16 7 -11 -14 -17 -55 -15 -19 1 -29 0
-22 -2 6 -3 9 -10 5 -16 -15 -24 -10 -34 16 -34 28 0 39 25 17 39 -6 4 -1 6
12 5 13 -1 22 -8 22 -18 0 -9 9 -23 20 -30 12 -8 22 -24 23 -37 1 -14 6 -21
14 -18 7 3 13 1 13 -4 0 -6 -5 -10 -11 -10 -5 0 -7 -4 -4 -10 3 -5 0 -10 -7
-10 -7 -1 0 -11 16 -24 20 -16 26 -28 20 -37 -10 -16 -44 -22 -44 -8 0 8 15
13 33 10 4 0 7 4 7 10 0 7 -11 9 -30 6 -18 -4 -30 -2 -30 4 0 6 -5 7 -10 4 -6
-4 -4 -12 5 -21 8 -9 15 -20 15 -25 0 -6 8 -9 18 -7 9 2 29 -8 45 -24 17 -18
38 -28 56 -28 41 0 76 -31 76 -69 0 -43 -27 -50 -60 -17 l-26 26 26 0 c16 0
25 -6 25 -15 0 -8 5 -15 11 -15 25 0 2 35 -25 38 -46 6 -52 -13 -16 -45 25
-22 33 -39 37 -76 3 -26 10 -47 14 -47 13 0 11 47 -3 70 -20 32 0 35 32 5 23
-22 30 -38 31 -69 2 -32 3 -35 6 -12 6 40 -4 72 -30 97 -12 12 -16 19 -9 15 6
-4 12 -3 12 1 0 5 -6 15 -12 22 -11 10 -10 14 5 22 9 6 17 18 17 27 0 15 -2
15 -10 2 -5 -8 -10 -13 -11 -10 0 3 -2 13 -4 23 -4 20 -1 21 25 7 13 -7 21 -7
25 0 12 19 20 10 21 -25 0 -28 -2 -32 -13 -23 -11 8 -12 7 -7 -6 5 -13 2 -15
-12 -9 -16 6 -17 4 -6 -9 7 -8 26 -40 42 -69 26 -48 29 -51 26 -22 -3 17 -14
41 -25 52 -22 22 -27 41 -12 41 6 0 13 -5 16 -10 4 -6 11 -8 16 -4 5 3 9 2 8
-3 -4 -22 2 -43 11 -38 6 3 7 -1 4 -10 -4 -8 0 -23 7 -32 12 -14 12 -16 0 -9
-10 7 -12 3 -6 -14 5 -16 4 -20 -4 -16 -8 5 -10 -4 -5 -32 4 -26 0 -58 -11
-91 -9 -28 -14 -60 -10 -71 6 -19 0 -30 -56 -97 -5 -7 -31 -13 -58 -13 -35 0
-53 -5 -66 -20 -10 -11 -31 -20 -47 -20 l-30 0 32 -40 c35 -44 70 -52 102 -23
22 19 24 35 3 27 -8 -3 -25 3 -38 13 -19 14 -21 21 -12 30 7 6 19 11 26 11 49
-3 74 5 100 31 16 16 29 25 29 20 0 -6 5 -7 10 -4 8 5 7 12 -2 23 -11 13 -10
15 12 9 29 -7 44 0 53 26 4 11 1 17 -8 17 -9 0 -12 -6 -9 -15 4 -9 0 -15 -10
-15 -14 0 -16 22 -6 50 1 3 1 14 0 25 -2 18 0 17 19 -5 22 -27 28 -21 11 11
-6 10 -17 19 -24 19 -11 0 -12 5 -3 24 12 26 30 26 20 1 -3 -8 0 -15 7 -15 8
0 10 8 6 24 -4 17 0 26 17 34 l22 11 -22 0 c-13 1 -23 -3 -23 -9 0 -24 -18 -7
-22 22 -4 24 -2 28 6 17 12 -15 86 -20 86 -6 0 5 5 5 10 2 6 -3 10 2 10 12 0
10 3 29 7 42 4 16 3 22 -5 18 -5 -4 -21 -3 -34 2 -15 6 -17 10 -7 10 25 1 43
27 24 35 -8 3 -15 14 -15 24 0 10 -5 23 -12 30 -8 8 -8 15 2 27 7 9 9 15 4 14
-23 -4 -34 3 -34 22 0 16 -4 19 -22 13 -21 -6 -21 -5 -6 10 10 9 21 16 25 15
21 -4 43 2 43 11 0 5 -17 7 -39 4 -21 -3 -42 -1 -45 4 -3 5 4 9 17 8 13 -1 22
5 22 14 0 8 5 15 10 15 6 0 9 -6 9 -12 -1 -7 2 -13 7 -13 5 0 9 4 9 9 0 5 23
-12 51 -38 36 -33 46 -47 35 -49 -23 -5 -2 -42 24 -42 16 0 18 -6 14 -37 -8
-68 -10 -75 -25 -84 -10 -6 -10 -9 -1 -9 15 0 16 -25 0 -53 -7 -12 -13 -42
-14 -66 -1 -24 -7 -47 -13 -50 -6 -4 -9 -15 -6 -23 4 -9 1 -19 -6 -24 -8 -4
-10 -3 -5 5 4 6 2 18 -4 26 -6 8 -9 23 -5 35 4 14 2 20 -9 20 -8 0 -20 8 -25
18 -10 16 -10 16 -11 0 0 -10 5 -18 11 -18 8 0 7 -5 -1 -15 -14 -17 -14 -17
15 -33 13 -7 20 -22 21 -46 1 -41 -3 -44 -23 -18 -8 9 -12 11 -8 5 3 -7 1 -13
-5 -13 -7 0 -10 -7 -6 -15 3 -9 -3 -24 -13 -34 -14 -14 -16 -22 -8 -30 7 -7
14 -5 23 7 7 9 15 14 19 10 3 -3 -3 -15 -15 -25 -12 -12 -18 -26 -14 -36 7
-19 -6 -23 -22 -7 -7 7 -11 6 -11 -5 0 -8 7 -15 16 -15 9 0 12 -3 6 -8 -5 -4
-11 -13 -13 -21 -2 -7 -12 -30 -23 -50 -11 -20 -17 -26 -14 -15 3 13 0 24 -8
27 -14 5 -17 -29 -4 -50 13 -20 -27 -50 -83 -62 -51 -11 -75 -8 -65 9 3 4 24
6 48 3 23 -3 39 -3 36 0 -3 4 -24 9 -47 12 -38 5 -43 3 -52 -20 -5 -14 -12
-25 -16 -25 -3 0 -4 6 -1 14 4 10 -4 17 -24 21 -17 4 -33 4 -36 1 -4 -3 1 -6
9 -6 9 0 21 -6 27 -14 10 -12 1 -15 -54 -21 -41 -5 -75 -3 -90 3 -27 13 -75 4
-53 -9 9 -6 2 -9 -20 -9 -18 0 -31 4 -28 8 3 5 -26 7 -64 5 -67 -3 -69 -3 -82
24 -10 20 -21 28 -40 28 -20 1 -24 -2 -17 -11 16 -19 -27 -28 -51 -11 -11 7
-17 17 -13 20 3 4 -1 7 -11 7 -9 0 -14 -4 -11 -10 3 -5 2 -10 -3 -10 -6 0 -20
16 -31 36 -18 29 -19 35 -6 30 9 -3 13 -2 10 4 -3 6 -13 10 -20 10 -8 0 -19 9
-24 19 -9 16 -7 20 14 25 27 7 34 23 10 23 -8 0 -15 -4 -15 -9 0 -4 -6 -8 -12
-8 -20 0 -61 91 -48 104 8 8 9 5 4 -9 -4 -12 -3 -17 2 -12 5 5 9 19 9 33 1 22
0 22 -17 7 -21 -18 -23 -11 -7 16 10 15 8 22 -10 40 -12 12 -21 16 -21 9 -1
-11 -40 89 -40 100 0 2 5 0 10 -3 6 -3 10 1 10 9 0 9 -6 15 -12 13 -9 -1 -12
9 -10 32 2 18 -1 31 -6 28 -5 -4 -9 0 -9 8 0 8 4 15 9 15 4 0 8 5 8 11 0 6 -7
9 -15 5 -11 -4 -15 3 -17 27 -6 111 -6 115 6 111 8 -3 12 8 10 35 -1 32 4 45
25 63 14 12 21 16 14 9 -15 -17 1 -53 21 -45 7 3 19 -3 27 -12 9 -12 10 -15 2
-10 -7 4 -13 2 -13 -3 0 -6 6 -11 13 -12 10 0 10 -2 0 -6 -7 -2 -13 -13 -13
-23 0 -10 -7 -25 -15 -33 -12 -13 -10 -17 18 -31 21 -10 26 -16 14 -16 -10 0
-26 4 -36 10 -16 8 -18 5 -18 -15 0 -14 4 -25 9 -25 6 0 8 -7 4 -15 -7 -20 3
-45 18 -45 8 0 12 -12 11 -29 -2 -26 1 -28 27 -24 22 3 28 0 28 -13 0 -10 2
-15 5 -12 4 3 3 17 0 31 -5 19 -12 24 -31 22 -13 -1 -24 1 -24 4 1 18 19 28
51 27 l36 -1 14 -65 c7 -36 13 -68 14 -72 0 -3 3 -10 8 -14 11 -12 8 18 -8 74
-9 28 -13 64 -10 81 5 28 -9 50 -23 36 -3 -3 0 -10 8 -15 12 -8 10 -10 -8 -10
-19 0 -21 3 -12 19 8 16 6 23 -12 35 -17 12 -19 16 -6 16 9 0 18 -7 22 -15 3
-8 11 -15 18 -14 10 0 10 2 1 6 -7 2 -12 17 -12 31 1 16 3 20 6 10 2 -10 10
-15 19 -11 12 4 14 0 9 -23 -5 -21 0 -16 15 16 11 24 32 59 46 77 26 35 51 45
40 16 -6 -15 -5 -15 13 1 12 11 21 14 26 6 3 -5 11 -8 16 -5 5 4 9 2 9 -3 0
-17 -13 -22 -28 -9 -13 9 -14 9 -8 0 7 -12 -4 -17 -31 -14 -16 2 -27 -19 -16
-30 6 -6 15 -4 23 6 18 21 33 19 27 -5 -3 -11 -1 -20 4 -20 5 0 9 9 9 19 0 11
14 31 32 46 31 26 31 28 13 41 -10 8 -21 11 -24 8 -3 -4 0 -9 7 -11 20 -7 14
-23 -8 -20 -23 4 -39 17 -20 17 7 0 11 3 8 6 -4 3 -15 1 -27 -5 -33 -18 -34 5
0 33 18 15 43 26 61 26 18 0 42 10 60 25 16 14 35 25 43 25 7 0 15 6 18 14 6
15 57 10 57 -5 0 -5 -4 -9 -8 -9 -5 0 -14 -10 -20 -22 -10 -22 -11 -22 -12 -3
-1 16 -4 14 -14 -10 -14 -33 -7 -77 19 -105 14 -16 14 -18 -5 -23 -16 -4 -20
-2 -15 12 4 13 0 17 -16 17 -13 -1 -23 6 -24 17 -2 9 3 17 11 17 8 0 14 5 14
11 0 5 -4 7 -10 4 -16 -10 -12 21 5 35 8 7 15 17 15 23 0 6 -11 -4 -25 -23
-31 -42 -33 -85 -5 -100 11 -6 18 -15 15 -19 -2 -5 5 -12 18 -16 21 -6 21 -7
-8 -21 -21 -10 -23 -14 -8 -11 12 3 24 -1 27 -8 6 -17 -2 -25 -25 -25 -30 0
-39 -30 -22 -72 15 -38 27 -46 38 -28 4 6 1 9 -7 8 -7 -2 -12 5 -12 15 1 9 -2
17 -7 17 -5 0 -9 5 -9 10 0 6 7 10 15 10 8 0 15 -4 15 -10 0 -5 6 -9 13 -7 7
1 12 -10 13 -28 1 -16 5 -47 9 -67 7 -35 10 -38 42 -38 27 0 33 3 26 13 -12
14 -13 47 -3 47 4 0 5 11 2 25 -2 13 -1 33 3 42 5 10 7 24 6 31 -2 10 2 10 18
0 28 -17 35 -38 12 -38 -10 0 -21 -9 -24 -20 -3 -11 -1 -18 4 -14 14 8 10 -9
-6 -30 -8 -11 -15 -25 -15 -30 0 -6 16 14 36 44 37 58 43 110 14 117 -13 4
-13 3 0 -6 22 -15 5 -24 -19 -10 -20 13 -23 41 -6 56 4 5 5 3 2 -4 -5 -7 0 -9
15 -5 l22 5 -23 8 c-12 5 -21 14 -20 21 3 26 -1 39 -11 33 -5 -3 -10 -1 -10 4
0 6 7 11 15 11 13 0 20 -18 16 -42 0 -5 4 -8 10 -8 6 0 9 7 6 15 -4 8 -2 17 4
21 17 10 29 54 23 81 -4 13 -25 38 -47 54 -22 16 -35 29 -28 29 9 0 9 3 -1 13
-16 18 -128 18 -121 0 3 -7 -3 -16 -13 -20 -11 -4 -25 -15 -32 -25 -9 -12 -24
-18 -46 -16 -17 1 -37 -2 -44 -6 -7 -4 -12 -2 -12 5 0 7 -8 5 -20 -6 -20 -18
-20 -18 -16 6 3 13 5 29 5 34 1 6 6 3 11 -5 8 -12 10 -12 10 -1 0 9 4 10 13 4
15 -12 83 -10 94 2 5 4 3 5 -3 2 -7 -4 -14 0 -18 8 -7 19 -25 19 -46 0 -16
-14 -18 -14 -23 -1 -4 9 -3 15 1 14 16 -3 42 15 42 31 0 14 2 14 10 1 7 -12
12 -12 22 -2 10 10 10 19 0 44 -6 17 -9 34 -7 37 11 10 22 -18 24 -60 1 -12 8
-15 25 -12 18 4 23 10 19 22 -4 10 1 8 14 -7 18 -19 22 -20 27 -7 4 11 2 14
-6 9 -7 -4 -8 -3 -4 5 5 8 12 9 19 3 7 -5 27 -13 45 -17 43 -9 77 17 61 46 -6
12 -6 19 0 19 15 0 2 35 -18 47 -21 13 -46 -2 -54 -32 -5 -19 -5 -19 -12 2 -8
26 -34 38 -49 23 -14 -14 -27 -13 -23 2 3 14 -28 22 -51 13 -14 -5 -14 -7 -2
-15 11 -7 9 -10 -12 -10 -16 0 -33 -9 -41 -20 -12 -18 -15 -18 -20 -5 -7 16
-47 21 -47 6 0 -5 10 -7 23 -4 20 4 19 3 -4 -11 -15 -9 -29 -22 -33 -31 -3 -8
-12 -15 -21 -15 -21 0 -19 17 4 23 13 3 18 12 16 29 -3 25 -1 26 52 29 22 1
23 3 9 11 -24 13 -1 41 27 32 14 -5 18 -3 12 7 -6 11 -5 12 6 2 18 -18 34 -16
20 1 -10 12 -8 14 11 9 18 -4 20 -3 8 6 -13 9 -13 11 3 11 9 0 17 -4 17 -10 0
-5 8 -10 18 -10 12 0 14 2 4 8 -7 5 -10 16 -6 26 5 13 9 14 20 5 8 -6 11 -15
8 -20 -3 -5 0 -9 5 -9 14 0 14 6 0 32 -9 16 -8 19 3 12 20 -13 46 -15 53 -4 4
6 -6 10 -21 10 -31 0 -28 9 6 15 12 2 25 6 27 9 11 11 31 -7 25 -22z m67 -46
c9 -11 8 -18 -5 -30 -22 -23 -48 -3 -33 25 12 23 22 24 38 5z m121 -82 c0 -4
-13 -21 -29 -39 -29 -33 -58 -34 -45 -2 7 18 24 23 24 7 0 -5 8 -2 18 8 12 11
14 20 8 24 -7 5 -4 8 7 8 9 0 17 -3 17 -6z m-297 -24 c-3 -11 -9 -20 -14 -20
-14 0 -11 28 4 33 6 3 13 6 14 6 0 1 -1 -8 -4 -19z m388 8 c1 -7 2 -21 2 -30
0 -22 16 -24 23 -3 5 12 10 13 20 5 7 -7 10 -19 7 -28 -6 -15 -5 -15 10 -3 15
12 17 11 17 -8 0 -11 5 -21 11 -21 5 0 7 4 4 10 -3 6 1 7 9 4 9 -4 15 -16 14
-31 -2 -22 -6 -24 -35 -20 -18 3 -33 3 -33 -1 0 -4 -12 -15 -25 -25 l-24 -17
22 34 c16 25 28 34 42 31 11 -3 14 -2 7 1 -6 3 -9 10 -6 16 5 7 -2 9 -20 6
-26 -5 -37 6 -13 15 6 2 1 5 -13 5 -14 1 -36 3 -50 6 -14 2 -28 5 -32 5 -8 1
-5 22 5 39 6 9 13 9 27 2 16 -8 18 -8 14 5 -4 8 -1 15 5 15 6 0 12 -6 12 -12z
m-623 -30 c-40 -8 -48 -2 -23 16 15 10 23 11 37 2 16 -10 15 -12 -14 -18z m-9
-24 c1 -1 -4 -13 -13 -26 -9 -12 -16 -18 -16 -12 0 5 6 16 13 23 10 11 9 13
-3 9 -8 -3 -17 -15 -18 -28 -3 -18 -6 -20 -13 -9 -7 11 -9 11 -9 -3 0 -9 -7
-21 -16 -26 -9 -5 -17 -22 -18 -39 -1 -18 -7 -29 -16 -30 -36 -3 -68 -11 -80
-18 -10 -6 -11 -4 -5 11 4 10 8 27 9 36 1 10 6 21 11 25 4 5 5 2 1 -4 -4 -8
-2 -13 5 -13 8 0 8 -4 -1 -15 -15 -18 1 -20 18 -3 8 8 9 15 1 25 -8 9 -7 14 5
19 9 3 14 10 11 15 -3 4 4 6 16 4 17 -3 20 0 16 16 -3 11 -1 19 6 18 28 -3 37
2 37 21 0 17 4 19 28 14 15 -4 29 -8 31 -10z m564 -29 c-3 -9 -8 -14 -10 -11
-3 3 -2 9 2 15 9 16 15 13 8 -4z m-62 -14 c7 11 9 10 9 -6 0 -12 -4 -25 -9
-30 -6 -6 -1 -11 14 -11 18 -1 22 2 17 15 -5 14 -4 14 12 2 9 -8 15 -20 12
-28 -3 -8 0 -13 7 -12 19 2 57 -12 57 -23 0 -5 -9 -4 -20 2 -14 7 -20 7 -20 0
0 -5 -5 -10 -11 -10 -5 0 -7 5 -3 12 5 8 2 9 -9 5 -10 -4 -16 -2 -14 5 1 7
-13 13 -33 15 -27 2 -32 0 -20 -8 13 -9 13 -10 0 -6 -8 2 -20 13 -26 25 -6 12
-14 19 -18 14 -4 -4 -2 5 5 20 10 23 15 26 26 16 11 -9 17 -9 24 3z m-492 -58
c-16 -18 -18 -16 -12 7 3 11 0 20 -6 20 -6 0 -11 5 -11 12 0 6 9 3 20 -7 15
-14 17 -21 9 -32z m405 -39 c3 -8 3 -14 1 -14 -6 0 -55 50 -55 56 0 9 49 -28
54 -42z m-411 -9 c8 4 18 13 21 21 3 8 11 14 17 14 9 0 9 -3 0 -14 -9 -10 -8
-15 3 -19 9 -4 18 -2 21 3 4 6 11 10 17 10 6 0 3 -9 -7 -20 -14 -16 -20 -17
-27 -8 -5 9 -8 3 -8 -14 0 -16 -3 -28 -7 -28 -5 0 -21 -20 -37 -45 -28 -45
-48 -57 -27 -17 6 12 11 29 11 39 0 15 -2 16 -10 3 -8 -13 -12 -12 -25 8 -9
12 -22 22 -30 22 -8 0 -17 4 -20 10 -3 5 13 3 36 -5 50 -18 52 -18 43 -4 -4 8
1 9 17 5 21 -6 22 -5 9 6 -8 8 -26 27 -40 43 l-25 30 26 -23 c15 -13 33 -20
42 -17z m-133 -17 c0 -11 -28 -10 -35 1 -3 6 4 9 15 8 11 -1 20 -5 20 -9z
m560 -13 c0 -8 -7 -15 -15 -15 -16 0 -20 12 -8 23 11 12 23 8 23 -8z m-680
-19 c0 -3 -4 -8 -10 -11 -5 -3 -10 -1 -10 4 0 6 5 11 10 11 6 0 10 -2 10 -4z
m670 -17 c0 -10 -12 -11 -34 -3 -9 3 -14 10 -11 14 6 10 45 1 45 -11z m344 -8
c-5 -5 -20 -12 -34 -16 -23 -6 -22 -5 5 13 29 19 48 21 29 3z m-810 -36 c-4
-8 -10 -15 -15 -15 -4 0 -6 7 -3 15 4 8 10 15 15 15 4 0 6 -7 3 -15z m326 -94
c0 -6 -5 -13 -12 -17 -7 -5 -8 -3 -3 6 6 9 2 10 -15 5 -15 -5 -20 -4 -16 4 9
13 46 15 46 2z m130 -65 c0 -3 -4 -8 -10 -11 -5 -3 -10 -1 -10 4 0 6 5 11 10
11 6 0 10 -2 10 -4z m287 -118 c-3 -8 -6 -5 -6 6 -1 11 2 17 5 13 3 -3 4 -12
1 -19z m-857 -89 c0 -14 -17 -10 -23 5 -4 10 -1 13 9 9 7 -3 14 -9 14 -14z
m264 -285 c9 -23 8 -24 -16 -24 -17 0 -19 3 -9 9 7 5 10 14 7 20 -4 6 -3 11 2
11 6 0 13 -7 16 -16z"/>
<path d="M5186 8805 c-3 -8 -1 -15 4 -15 6 0 10 7 10 15 0 8 -2 15 -4 15 -2 0
-6 -7 -10 -15z"/>
<path d="M5320 8670 c0 -5 5 -10 11 -10 5 0 7 5 4 10 -3 6 -8 10 -11 10 -2 0
-4 -4 -4 -10z"/>
<path d="M5110 8630 c0 -14 15 -19 29 -11 9 6 7 10 -8 14 -12 3 -21 1 -21 -3z"/>
<path d="M5745 8550 c3 -5 13 -6 22 -3 11 4 14 3 9 -5 -9 -15 -56 -16 -56 -2
0 6 -4 10 -10 10 -5 0 -7 -7 -4 -15 4 -8 17 -15 29 -15 13 0 27 -6 31 -12 6
-9 10 -5 14 12 9 32 4 40 -21 40 -11 0 -18 -4 -14 -10z"/>
<path d="M4706 8503 c13 -10 30 -58 17 -50 -11 7 -48 -21 -39 -30 4 -4 12 -1
17 7 7 11 8 5 4 -19 -5 -23 -4 -31 4 -27 6 4 11 13 11 21 0 7 7 15 15 19 12 4
13 11 5 31 -14 36 -13 40 5 25 13 -11 14 -10 9 4 -3 9 -10 16 -14 16 -5 0 -17
3 -27 6 -11 4 -14 3 -7 -3z"/>
<path d="M5742 8498 c-15 -15 -16 -31 0 -22 8 5 9 2 4 -11 -5 -15 -4 -16 8 -6
8 6 12 21 9 31 -6 24 -6 23 -21 8z"/>
<path d="M5600 8430 c0 -5 5 -10 11 -10 5 0 7 5 4 10 -3 6 -8 10 -11 10 -2 0
-4 -4 -4 -10z"/>
<path d="M4951 8384 c0 -11 3 -14 6 -6 3 7 2 16 -1 19 -3 4 -6 -2 -5 -13z"/>
<path d="M5000 8355 c0 -14 5 -25 10 -25 6 0 10 11 10 25 0 14 -4 25 -10 25
-5 0 -10 -11 -10 -25z"/>
<path d="M4692 8352 c-10 -3 -10 -8 3 -22 9 -10 17 -27 18 -38 2 -28 13 -19
12 10 -2 32 -17 56 -33 50z"/>
<path d="M4942 8330 c0 -19 2 -27 5 -17 2 9 2 25 0 35 -3 9 -5 1 -5 -18z"/>
<path d="M5421 8344 c0 -11 3 -14 6 -6 3 7 2 16 -1 19 -3 4 -6 -2 -5 -13z"/>
<path d="M5785 8326 c2 -22 -1 -46 -7 -53 -6 -7 -8 -16 -5 -20 4 -3 12 6 18
20 9 20 9 35 1 59 l-12 33 5 -39z"/>
<path d="M5045 8273 c-39 -34 -39 -35 -8 -19 18 9 37 25 43 36 14 26 12 25
-35 -17z"/>
<path d="M5435 8280 c3 -6 21 -17 38 -26 l32 -16 -30 26 c-31 26 -51 34 -40
16z"/>
<path d="M4831 8250 c0 -8 4 -24 9 -35 l9 -20 0 20 c0 11 -4 27 -9 35 -9 13
-10 13 -9 0z"/>
<path d="M5196 8205 c9 -14 19 -24 21 -21 7 7 -16 46 -28 46 -5 0 -2 -11 7
-25z"/>
<path d="M5547 8199 c4 -13 8 -18 11 -10 2 7 -1 18 -6 23 -8 8 -9 4 -5 -13z"/>
<path d="M5775 8200 c-3 -5 -1 -10 4 -10 6 0 11 5 11 10 0 6 -2 10 -4 10 -3 0
-8 -4 -11 -10z"/>
<path d="M4835 8144 c-12 -22 -15 -38 -9 -44 6 -6 10 -2 11 12 1 11 7 26 14
32 9 8 10 8 5 -1 -3 -6 -1 -15 6 -19 7 -4 10 -4 6 1 -4 4 -3 14 2 20 7 9 6 16
-3 23 -10 9 -17 3 -32 -24z"/>
<path d="M4773 8105 c0 -11 4 -12 14 -4 7 6 13 13 13 15 0 2 -6 4 -13 4 -8 0
-14 -7 -14 -15z"/>
<path d="M4903 8093 c7 -11 -29 -74 -37 -66 -4 4 -4 -1 0 -11 6 -16 8 -17 16
-2 5 9 20 16 33 16 14 0 25 2 25 5 0 10 -30 65 -36 65 -3 0 -3 -3 -1 -7z m12
-42 c-3 -6 -11 -11 -17 -11 -6 0 -6 6 2 15 14 17 26 13 15 -4z"/>
<path d="M5648 8043 c7 -3 16 -2 19 1 4 3 -2 6 -13 5 -11 0 -14 -3 -6 -6z"/>
<path d="M4830 8030 c-13 -8 -12 -10 3 -10 9 0 17 5 17 10 0 12 -1 12 -20 0z"/>
<path d="M5590 8024 c0 -7 -3 -14 -7 -17 -5 -2 -1 -2 7 1 8 2 21 5 28 5 6 0
12 6 12 13 0 7 -9 12 -20 11 -11 -1 -20 -7 -20 -13z"/>
<path d="M4940 8011 c0 -6 5 -13 10 -16 6 -3 10 -1 10 4 0 6 7 11 15 11 14 0
14 -4 0 -31 -19 -35 -13 -52 7 -20 16 26 32 27 25 2 -3 -14 0 -17 15 -13 15 4
17 7 6 13 -7 5 -11 9 -8 10 64 12 65 11 11 -31 -29 -23 -50 -44 -47 -47 3 -3
12 0 20 6 9 8 27 10 45 6 35 -8 72 1 68 17 -1 6 3 12 10 15 7 3 9 -3 6 -16 -3
-12 -10 -21 -17 -21 -6 0 -20 -8 -31 -16 -19 -15 -19 -15 10 -9 26 5 27 4 8
-4 -13 -6 -23 -15 -23 -20 0 -14 46 -22 72 -12 22 9 22 10 -7 11 -29 2 -28 2
10 13 27 8 41 18 43 32 2 11 10 33 18 49 l14 28 -33 -4 c-17 -3 -41 -8 -52
-13 l-20 -8 20 16 c19 16 18 16 -20 17 -35 1 -37 2 -17 11 15 6 31 5 44 -2 23
-12 39 -2 18 11 -12 8 -10 10 8 10 12 0 22 -5 22 -10 0 -7 6 -7 19 0 29 15 48
12 25 -5 -18 -14 -18 -14 11 -16 24 -1 26 -3 7 -6 -23 -4 -52 -49 -52 -78 0
-25 32 -75 48 -75 7 0 10 -4 7 -10 -3 -5 -1 -10 4 -10 6 0 11 4 11 9 0 5 9 13
20 16 11 3 20 14 20 23 0 13 11 17 50 19 68 3 78 11 41 34 -17 10 -31 25 -31
34 0 17 -30 35 -59 35 -12 0 -21 5 -21 10 0 6 -8 10 -17 10 -17 1 -17 1 0 11
10 6 30 8 45 3 42 -11 62 -11 55 -1 -4 6 0 8 10 4 10 -3 17 -2 17 3 0 5 -65 9
-150 9 -82 1 -150 -3 -150 -7 0 -4 -16 -12 -35 -18 -21 -7 -35 -7 -35 -1 0 5
-7 7 -15 4 -8 -4 -17 -2 -20 3 -3 5 5 11 17 13 13 2 -1 5 -29 6 -29 0 -53 -3
-53 -8z m370 -101 c3 -40 1 -60 -8 -60 -4 0 -6 17 -4 39 2 21 -1 42 -7 45 -6
4 -11 12 -11 19 0 22 28 -18 30 -43z"/>
<path d="M5055 8010 c3 -5 8 -10 11 -10 2 0 4 5 4 10 0 6 -5 10 -11 10 -5 0
-7 -4 -4 -10z"/>
<path d="M5686 8005 c4 -8 8 -15 10 -15 2 0 4 7 4 15 0 8 -4 15 -10 15 -5 0
-7 -7 -4 -15z"/>
<path d="M4893 7993 c-23 -8 -15 -32 9 -25 15 4 19 2 13 -8 -5 -8 -3 -11 5 -8
8 2 15 9 17 14 4 12 -29 32 -44 27z"/>
<path d="M5500 7978 c0 -10 66 -21 85 -14 8 3 15 10 15 16 0 7 -6 8 -19 0 -24
-13 -54 -13 -46 -1 3 6 -4 9 -15 8 -11 -1 -20 -5 -20 -9z"/>
<path d="M4816 7945 c7 -17 24 -21 24 -5 0 5 7 7 15 4 8 -4 15 -2 15 3 0 5
-13 10 -30 11 -23 2 -28 -1 -24 -13z"/>
<path d="M5531 7937 c2 -1 13 -9 24 -17 19 -14 19 -14 6 3 -7 9 -18 17 -24 17
-6 0 -8 -1 -6 -3z"/>
<path d="M4961 7914 c0 -11 3 -14 6 -6 3 7 2 16 -1 19 -3 4 -6 -2 -5 -13z"/>
<path d="M5500 7910 c-8 -5 -10 -10 -5 -11 6 0 -1 -5 -15 -9 -24 -8 -24 -8 7
-9 26 -1 31 3 30 19 -1 11 -1 20 -2 20 0 0 -7 -5 -15 -10z"/>
<path d="M4868 7888 c-8 -19 17 -33 28 -16 4 6 3 8 -4 4 -6 -3 -12 2 -14 11
-3 16 -4 17 -10 1z"/>
<path d="M5037 7889 c7 -7 15 -10 18 -7 3 3 -2 9 -12 12 -14 6 -15 5 -6 -5z"/>
<path d="M5605 7870 c-3 -5 -1 -10 4 -10 6 0 11 5 11 10 0 6 -2 10 -4 10 -3 0
-8 -4 -11 -10z"/>
<path d="M4961 7846 c-9 -11 -6 -12 14 -8 14 2 22 8 19 13 -8 13 -20 11 -33
-5z"/>
<path d="M5186 7853 c5 -5 12 -12 16 -18 4 -6 8 -2 8 8 0 9 -7 17 -17 17 -9 0
-12 -3 -7 -7z"/>
<path d="M5340 7833 c0 -7 5 -13 10 -13 6 0 10 4 10 9 0 5 8 12 18 14 9 3 5 4
-10 4 -16 -1 -28 -7 -28 -14z"/>
<path d="M5603 7837 c3 -9 2 -19 -3 -22 -14 -9 -12 -27 2 -23 16 6 20 45 6 54
-8 5 -9 2 -5 -9z"/>
<path d="M5388 7823 c12 -2 30 -2 40 0 9 3 -1 5 -23 4 -22 0 -30 -2 -17 -4z"/>
<path d="M5123 7801 c2 -10 1 -25 -4 -32 -7 -11 -9 -10 -9 4 0 11 -8 17 -25
17 -18 0 -25 -5 -25 -20 0 -11 4 -20 10 -20 5 0 7 7 4 15 -8 20 5 19 27 -1 16
-14 18 -14 30 8 14 28 28 38 52 38 28 0 19 -18 -10 -22 l-28 -3 33 -12 c18 -7
30 -8 27 -4 -3 5 14 7 37 5 l43 -5 -31 15 c-18 7 -35 19 -38 25 -4 6 -28 11
-53 11 -40 0 -45 -2 -40 -19z"/>
<path d="M5300 7791 c-13 -26 3 -36 31 -19 17 10 23 10 26 0 3 -6 9 -10 14 -6
14 8 0 24 -22 24 -11 0 -17 5 -14 10 3 6 -1 10 -9 10 -8 0 -20 -9 -26 -19z"/>
<path d="M5425 7800 c27 -12 43 -12 25 0 -8 5 -22 9 -30 9 -10 0 -8 -3 5 -9z"/>
<path d="M4940 7792 c0 -5 7 -9 15 -9 8 0 15 4 15 9 0 4 -7 8 -15 8 -8 0 -15
-4 -15 -8z"/>
<path d="M5528 8703 c7 -3 16 -2 19 1 4 3 -2 6 -13 5 -11 0 -14 -3 -6 -6z"/>
<path d="M4840 8630 c0 -5 5 -10 10 -10 6 0 10 5 10 10 0 6 -4 10 -10 10 -5 0
-10 -4 -10 -10z"/>
<path d="M4811 8602 c-1 -8 -6 -10 -13 -6 -10 6 -10 5 -1 -8 7 -8 11 -18 8
-22 -3 -3 0 -2 6 3 6 5 9 17 6 27 -3 11 -5 13 -6 6z"/>
<path d="M5395 8610 c4 -6 11 -8 16 -5 14 9 11 15 -7 15 -8 0 -12 -5 -9 -10z"/>
<path d="M3575 8886 c-105 -38 -140 -55 -215 -106 -68 -46 -179 -163 -232
-244 l-40 -61 6 -115 c10 -197 60 -339 175 -497 56 -78 75 -89 226 -129 102
-27 292 -25 402 4 153 41 163 48 241 166 102 154 133 254 140 446 l5 145 -61
80 c-129 172 -257 262 -467 326 -76 24 -73 24 -180 -15z m140 -180 c16 -12 17
-23 12 -100 -3 -48 -2 -84 2 -82 4 3 11 40 15 82 3 43 8 79 11 82 2 3 12 -1
21 -9 17 -14 16 -44 -1 -164 -4 -28 -3 -34 3 -20 5 11 13 43 17 70 11 78 28
99 64 76 11 -7 11 -12 -2 -32 -9 -13 -28 -82 -43 -154 -14 -71 -28 -131 -29
-133 -2 -2 -15 4 -29 13 -23 15 -26 24 -25 66 1 27 -1 52 -4 56 -4 3 -7 -5 -7
-18 0 -14 -6 -34 -14 -44 -12 -16 -16 -17 -30 -6 -9 7 -16 24 -16 38 0 14 -4
21 -10 18 -6 -3 -7 -23 -4 -43 5 -32 2 -41 -23 -65 l-30 -27 -28 137 c-15 76
-34 149 -42 162 -13 20 -13 25 -2 32 36 23 51 2 63 -86 4 -28 11 -57 17 -65
12 -21 11 -4 -6 86 -13 71 -13 79 2 96 9 10 19 18 23 18 4 0 11 -38 15 -85 4
-47 11 -88 16 -91 9 -5 3 112 -7 145 -6 18 22 61 39 61 7 0 22 -6 32 -14z
m-458 -338 c-7 -47 8 -78 37 -78 13 0 53 11 90 25 l66 25 21 -21 c11 -11 19
-26 16 -32 -2 -7 -12 -46 -22 -88 -17 -74 -17 -77 1 -115 13 -26 33 -45 63
-60 l44 -22 -34 -10 c-67 -22 -133 -25 -172 -9 -46 20 -48 37 -4 38 32 1 32 1
-7 10 -44 10 -66 25 -66 43 0 8 12 11 33 9 l32 -3 -35 11 c-41 13 -60 27 -60
45 0 9 11 12 38 9 l37 -5 -35 9 c-32 9 -70 42 -70 62 0 5 19 7 43 4 38 -4 39
-4 9 4 -43 11 -72 38 -72 67 0 22 39 114 48 114 2 0 2 -15 -1 -32z m893 -20
c11 -24 20 -50 20 -59 0 -27 -33 -60 -70 -70 -34 -8 -33 -8 8 -4 23 3 42 1 42
-4 0 -19 -36 -50 -70 -60 l-35 -11 38 4 c26 3 37 1 37 -8 0 -20 -21 -34 -66
-45 l-39 -10 38 2 c65 5 43 -35 -29 -52 l-39 -9 34 -1 c33 -1 33 -2 17 -20
-10 -10 -33 -22 -51 -25 -36 -7 -162 11 -170 24 -2 4 14 15 36 25 70 32 85 97
52 216 -17 61 -17 62 5 80 22 17 25 17 97 -9 90 -32 108 -26 113 37 2 22 5 41
8 41 3 0 14 -19 24 -42z m-470 7 c0 -8 5 -15 10 -15 6 0 10 7 10 15 0 8 5 15
10 15 6 0 10 -15 10 -34 0 -24 11 -48 34 -79 19 -24 39 -55 46 -67 l12 -22 22
21 c17 18 21 34 21 84 0 59 1 62 25 65 20 3 23 1 13 -9 -17 -17 -16 -53 2
-113 32 -105 10 -165 -68 -187 -23 -7 -49 -18 -57 -25 -20 -15 -76 -44 -88
-44 -5 0 -27 12 -48 26 -21 15 -58 33 -82 41 -81 28 -97 76 -66 199 13 50 14
71 6 90 -10 21 -9 24 7 24 25 0 31 -20 24 -78 -5 -43 -2 -53 17 -72 22 -22 23
-22 33 -4 6 11 28 41 49 67 27 35 38 59 38 83 0 19 5 34 10 34 6 0 10 -7 10
-15z m-40 -45 c0 -11 -13 -34 -30 -52 -26 -29 -29 -30 -30 -13 0 21 25 64 44
77 15 11 16 10 16 -12z m128 -2 c11 -13 24 -36 28 -53 l7 -30 -23 20 c-20 18
-50 66 -50 80 0 12 18 4 38 -17z m-109 -363 c20 -10 32 -9 75 7 54 21 73 20
154 -8 40 -15 54 -25 59 -44 3 -14 10 -31 16 -38 20 -25 -5 -26 -73 -3 -55 19
-79 22 -122 16 -68 -9 -101 -9 -162 0 -40 7 -63 3 -117 -16 -66 -22 -95 -21
-71 3 7 7 12 22 12 35 0 13 6 25 13 27 6 2 39 13 72 24 61 21 99 21 144 -3z"/>
<path d="M3680 8501 c0 -5 7 -14 15 -21 16 -14 18 -10 9 14 -6 17 -24 22 -24
7z"/>
<path d="M3678 8305 c-69 -131 -79 -173 -48 -210 10 -12 67 -15 111 -6 4 0 12
15 19 31 11 27 9 37 -20 96 -18 36 -35 78 -39 93 l-7 26 -16 -30z m45 -80 c45
-89 34 -134 -33 -131 -22 1 -45 7 -52 14 -16 16 -12 64 7 103 20 37 35 25 35
-29 0 -22 4 -31 11 -26 11 6 8 53 -7 102 -12 41 11 22 39 -33z"/>
<path d="M3654 8019 c-3 -6 1 -18 11 -27 16 -16 17 -16 7 4 -6 12 -8 24 -5 28
3 3 4 6 0 6 -3 0 -9 -5 -13 -11z"/>
<path d="M3710 8008 c0 -9 -6 -19 -12 -21 -10 -4 -10 -6 0 -6 14 -1 28 26 18
36 -3 4 -6 -1 -6 -9z"/>
<path d="M3678 7883 c7 -3 16 -2 19 1 4 3 -2 6 -13 5 -11 0 -14 -3 -6 -6z"/>
<path d="M310 7222 c0 -17 59 -180 88 -245 69 -151 207 -326 331 -421 131 -99
253 -156 428 -202 54 -14 100 -28 103 -31 3 -3 -24 -2 -60 2 -264 27 -509 160
-673 365 -77 96 -167 268 -194 373 -10 37 -22 67 -27 67 -6 0 -7 -291 -3 -757
4 -417 7 -895 8 -1063 l0 -305 18 45 c81 199 272 382 487 468 117 47 276 82
364 81 l75 0 -120 -29 c-66 -15 -160 -42 -209 -59 -263 -92 -473 -271 -580
-496 l-36 -76 0 -537 1 -537 25 75 c129 378 415 650 759 721 133 28 183 23 70
-6 -391 -101 -676 -377 -830 -802 l-25 -70 0 -397 0 -396 545 0 545 0 0 850 0
850 825 0 c727 0 825 2 825 15 0 35 20 11 35 -42 58 -203 220 -431 382 -541
145 -97 263 -147 447 -188 60 -13 112 -27 115 -30 9 -10 -154 5 -239 21 -41 8
-82 16 -90 18 -8 1 -21 8 -28 15 -18 16 -32 15 -32 -3 0 -8 -9 -20 -20 -27
-28 -18 -25 -29 8 -26 19 2 27 -2 27 -12 0 -9 -11 -16 -27 -18 -28 -3 -28 -4
-28 -78 l0 -74 40 0 40 0 0 -80 0 -80 -40 0 -40 0 0 -79 c0 -75 -1 -80 -22
-83 l-23 -3 23 -20 c18 -16 22 -30 22 -77 l0 -58 40 0 40 0 0 -80 0 -80 -40 0
c-40 0 -40 0 -40 -38 l0 -38 -207 -3 c-115 -1 -209 -4 -211 -5 -1 -2 1027 -6
2285 -10 1564 -5 2325 -4 2404 3 64 6 159 22 211 36 93 24 248 85 278 110 8 6
22 14 30 17 34 13 180 131 245 199 142 149 235 307 289 495 94 323 42 780
-118 1033 -14 22 -26 45 -26 50 0 5 -3 11 -7 13 -5 2 -26 30 -48 62 -69 103
-268 293 -326 311 -10 4 -19 10 -19 15 0 4 -20 18 -45 30 -25 12 -45 24 -45
27 0 3 32 37 71 75 127 125 222 302 255 476 24 125 15 324 -20 451 -33 117
-84 233 -143 325 -43 66 -199 231 -287 303 -74 61 -318 169 -400 178 -12 1
-21 4 -21 5 0 1 -9 4 -20 5 -11 2 -58 8 -105 14 -101 13 -7310 16 -7310 3z
m5535 -92 c98 -306 369 -537 741 -633 136 -35 147 -36 419 -47 233 -9 355 -23
355 -42 0 -5 4 -7 10 -3 5 3 17 1 27 -4 10 -5 48 -23 85 -39 84 -38 146 -95
189 -174 33 -61 34 -67 34 -173 0 -104 -2 -114 -32 -175 -42 -85 -140 -187
-215 -223 -98 -47 -248 -77 -405 -81 -76 -2 -143 -1 -150 1 -10 4 -13 99 -13
438 l0 432 -92 7 c-231 17 -460 97 -634 221 -169 121 -333 364 -351 520 -7 63
8 51 32 -25z m-2750 -815 c94 -272 267 -471 520 -597 90 -45 175 -74 303 -103
57 -13 107 -27 110 -31 7 -7 -140 2 -193 12 -16 3 -60 13 -97 23 -52 14 -65
15 -61 4 3 -7 22 -14 47 -15 l41 -1 -45 -7 c-25 -4 -34 -8 -21 -8 l24 -2 -22
-19 -22 -19 40 5 c27 4 41 2 41 -6 0 -6 -17 -11 -41 -11 -40 0 -41 -1 -35 -27
16 -64 17 -81 7 -87 -7 -5 -11 4 -11 23 0 29 -2 31 -40 31 l-40 0 0 -80 c0
-47 -4 -80 -10 -80 -6 0 -10 -33 -10 -80 0 -73 -2 -80 -20 -80 -15 0 -20 -7
-20 -24 0 -14 -4 -28 -10 -31 -6 -4 -10 7 -10 27 0 33 -1 33 -40 30 l-40 -4 0
-75 c0 -68 -3 -78 -26 -99 -27 -26 -39 -29 -49 -14 -3 5 -12 7 -20 3 -8 -3
-15 0 -15 6 0 7 7 14 15 17 8 4 15 11 15 17 0 5 -9 2 -19 -7 -18 -17 -20 -17
-29 1 -6 10 -31 41 -56 68 -26 28 -55 66 -65 85 -10 19 -26 49 -34 65 -61 115
-95 224 -99 313 l-2 62 -828 0 -828 0 0 360 0 360 829 0 829 0 -5 48 c-7 64 7
46 42 -53z m2711 -7 c5 -7 10 -171 12 -365 4 -293 2 -353 -9 -357 -8 -2 -383
-7 -834 -10 l-820 -6 -4 375 -4 375 826 0 c644 0 827 -3 833 -12z m179 -448
c3 -5 1 -10 -4 -10 -6 0 -11 5 -11 10 0 6 2 10 4 10 3 0 8 -4 11 -10z m-2203
-267 c-6 -2 -10 -9 -6 -14 3 -5 0 -9 -5 -9 -12 0 -14 13 -4 23 3 4 11 7 17 6
6 0 5 -3 -2 -6z m58 -23 c0 -5 -2 -10 -4 -10 -3 0 -8 5 -11 10 -3 6 -1 10 4
10 6 0 11 -4 11 -10z m1994 -161 c10 -60 67 -179 119 -246 96 -124 242 -240
407 -323 136 -69 420 -101 875 -100 227 1 380 -11 399 -30 6 -6 20 -10 31 -10
38 0 138 -58 189 -108 28 -27 67 -79 87 -116 134 -235 30 -542 -222 -658 -56
-26 -84 -28 -369 -35 -468 -11 -685 -8 -788 11 -119 22 -263 73 -360 128 -148
84 -296 250 -364 408 l-23 55 -5 -240 -5 -240 -826 -3 -826 -2 -2 385 -2 385
828 -2 828 -3 7 -110 c7 -132 30 -196 113 -320 165 -248 472 -400 855 -422
l110 -6 0 444 0 445 -147 12 c-249 20 -349 50 -516 151 -160 97 -266 201 -344
339 -48 85 -84 194 -77 232 8 39 20 30 28 -21z m-2394 -474 c0 -8 -5 -15 -11
-15 -5 0 -7 -4 -4 -10 3 -5 17 -10 30 -10 14 0 29 -9 35 -20 10 -19 6 -18 -40
7 -28 15 -46 29 -41 31 6 2 11 10 11 18 0 8 5 14 10 14 6 0 10 -7 10 -15z
m277 -1011 c-3 -3 -12 -4 -19 -1 -8 3 -5 6 6 6 11 1 17 -2 13 -5z m20 -20 c-3
-3 -12 -4 -19 -1 -8 3 -5 6 6 6 11 1 17 -2 13 -5z m-30 -20 c-3 -3 -12 -4 -19
-1 -8 3 -5 6 6 6 11 1 17 -2 13 -5z m-90 -836 c-3 -8 -6 -5 -6 6 -1 11 2 17 5
13 3 -3 4 -12 1 -19z m20 0 c-3 -8 -6 -5 -6 6 -1 11 2 17 5 13 3 -3 4 -12 1
-19z m20 0 c-3 -8 -6 -5 -6 6 -1 11 2 17 5 13 3 -3 4 -12 1 -19z"/>
<path d="M3063 5920 c0 -25 2 -35 4 -22 2 12 2 32 0 45 -2 12 -4 2 -4 -23z"/>
<path d="M3580 5660 c-8 -5 -10 -10 -5 -10 6 0 17 5 25 10 8 5 11 10 5 10 -5
0 -17 -5 -25 -10z"/>
<path d="M3537 5649 c7 -7 15 -10 18 -7 3 3 -2 9 -12 12 -14 6 -15 5 -6 -5z"/>
<path d="M3628 5643 c6 -2 18 -2 25 0 6 3 1 5 -13 5 -14 0 -19 -2 -12 -5z"/>
<path d="M3310 5064 c0 -8 5 -12 10 -9 6 3 10 10 10 16 0 5 -4 9 -10 9 -5 0
-10 -7 -10 -16z"/>
<path d="M3270 4216 c0 -2 8 -10 18 -17 15 -13 16 -12 3 4 -13 16 -21 21 -21
13z"/>
<path d="M3448 4033 c7 -3 16 -2 19 1 4 3 -2 6 -13 5 -11 0 -14 -3 -6 -6z"/>
<path d="M3505 3990 c3 -5 8 -10 11 -10 2 0 4 5 4 10 0 6 -5 10 -11 10 -5 0
-7 -4 -4 -10z"/>
<path d="M3585 3981 c-3 -5 4 -13 16 -16 28 -9 33 -2 9 13 -11 6 -21 8 -25 3z"/>
<path d="M3538 3963 c7 -3 16 -2 19 1 4 3 -2 6 -13 5 -11 0 -14 -3 -6 -6z"/>
<path d="M3128 2993 c7 -3 16 -2 19 1 4 3 -2 6 -13 5 -11 0 -14 -3 -6 -6z"/>
<path d="M1049 2530 c-2 -260 12 -257 -167 -32 l-152 192 -78 0 -77 0 3 -55
c2 -30 8 -55 13 -55 5 0 9 5 9 10 0 6 5 10 11 10 5 0 7 -5 3 -11 -3 -6 -2 -14
5 -18 28 -17 111 -94 111 -102 0 -5 -29 15 -65 46 -68 57 -83 63 -103 43 -9
-9 -12 -6 -12 15 0 30 -16 37 -23 10 -4 -17 -5 -17 -6 0 -1 19 -21 24 -21 5 0
-6 -7 -3 -15 8 -13 16 -14 16 -9 2 3 -10 1 -18 -5 -18 -6 0 -11 5 -11 10 0 6
-4 10 -10 10 -6 0 -10 -61 -10 -164 0 -160 -1 -165 -25 -194 -54 -64 -131 -67
-184 -6 l-31 35 0 209 0 210 -49 0 -48 0 9 -52 c5 -29 8 -112 6 -185 l-3 -132
25 5 c24 6 23 5 -5 -14 -52 -33 -78 -68 -72 -94 10 -38 71 -101 123 -128 41
-21 63 -25 134 -25 101 0 143 17 208 83 l42 44 0 -66 0 -66 75 0 75 0 0 98 c0
123 11 292 19 291 3 0 74 -87 156 -194 l150 -194 153 -1 152 0 0 68 c0 75 -22
116 -62 118 -13 1 -35 2 -49 3 -31 1 -45 34 -23 52 20 16 78 -6 109 -42 l25
-31 0 109 c0 100 -2 111 -26 146 -14 21 -40 47 -57 58 -18 10 -26 19 -18 19
20 0 78 -38 85 -56 3 -8 13 -14 22 -12 12 2 25 -23 53 -102 20 -58 57 -156 81
-217 l44 -113 77 0 77 0 30 73 c16 39 40 98 52 130 13 31 26 57 30 57 3 0 14
-16 25 -36 11 -20 35 -47 54 -60 25 -17 30 -24 18 -24 -17 0 -17 -1 -2 -16 12
-13 13 -19 4 -24 -6 -5 -9 -17 -6 -28 2 -12 0 -23 -7 -25 -8 -3 -7 -8 2 -20
12 -13 10 -16 -15 -20 -15 -2 92 -5 240 -6 l267 -1 0 110 c0 89 3 110 14 110
26 0 141 -123 162 -173 l19 -47 80 0 80 1 -62 29 c-66 30 -73 39 -48 64 8 8
15 19 15 25 0 18 18 21 46 6 15 -7 31 -12 36 -9 4 3 8 0 8 -5 0 -6 8 -11 18
-11 14 0 15 -2 2 -10 -11 -7 -7 -10 20 -11 19 -1 42 0 50 1 8 1 12 -1 8 -6 -8
-7 11 -21 65 -47 15 -7 24 -17 20 -21 -11 -11 47 4 79 21 15 7 35 25 44 38 24
37 34 30 34 -25 l0 -50 58 0 c90 0 102 6 102 49 0 80 -12 114 -56 158 -24 24
-39 43 -34 43 6 0 28 -19 50 -41 l40 -41 0 98 c0 117 -17 164 -75 212 -28 23
-33 29 -17 25 22 -5 48 -29 77 -68 13 -19 14 -16 15 30 l0 51 108 18 c59 10
133 26 164 36 32 10 56 14 53 10 -6 -9 -111 -45 -161 -55 l-31 -6 1 -253 1
-253 110 -7 c61 -3 131 -6 156 -6 l46 0 22 60 22 60 122 0 122 0 21 -57 20
-58 50 -3 c27 -2 65 0 84 4 l35 6 -40 14 c-22 8 -54 22 -72 31 l-31 17 19 38
c19 38 43 49 52 26 4 -10 6 -10 6 -1 1 8 21 -2 49 -22 27 -19 52 -32 56 -28 3
4 12 -2 20 -12 8 -12 20 -16 35 -12 11 3 19 2 17 -2 -3 -4 4 -15 15 -24 10 -9
19 -13 19 -9 0 4 4 1 8 -6 7 -10 17 -9 52 3 56 20 78 40 101 90 24 52 24 119
-1 170 -16 34 -31 46 -78 67 -70 32 -95 42 -104 40 -5 -1 -8 3 -8 8 0 6 -5 10
-11 10 -5 0 -7 -4 -4 -10 3 -5 -3 -10 -14 -10 -14 0 -21 -6 -21 -20 0 -15 -7
-20 -26 -20 -16 0 -23 -4 -18 -11 4 -8 0 -9 -15 -4 -12 3 -21 2 -21 -3 0 -15
74 -39 150 -50 l65 -9 -49 -2 -50 -1 27 -28 c35 -36 34 -66 -2 -103 -34 -33
-79 -38 -127 -14 -48 24 -69 54 -107 155 -19 52 -58 154 -86 225 l-50 130 -73
-3 c-41 -2 -76 -9 -80 -15 -5 -8 -8 -5 -8 8 0 37 -18 0 -70 -140 -89 -243
-162 -425 -171 -431 -5 -3 -9 92 -9 230 l0 236 65 0 65 0 0 61 0 60 -112 -2
c-66 -1 -124 -6 -138 -14 -14 -6 -45 -13 -70 -14 -25 -1 -57 -3 -72 -5 -27 -3
-47 19 -25 28 7 2 -27 5 -75 5 l-88 1 0 -170 c0 -93 -3 -170 -6 -170 -3 0 -19
11 -35 24 -16 14 -55 34 -86 46 -32 12 -66 29 -76 37 -9 9 -20 13 -23 10 -4
-4 1 -9 10 -13 28 -11 -32 -56 -66 -49 -24 6 -26 4 -21 -17 4 -22 4 -22 -10
-5 -10 12 -17 14 -22 7 -11 -17 73 -47 153 -55 39 -4 74 -11 77 -15 3 -5 -3
-7 -12 -5 -10 2 -45 6 -78 9 -57 4 -58 4 -29 -9 35 -15 64 -50 64 -78 0 -33
-54 -77 -95 -77 -43 0 -69 12 -112 53 -26 24 -33 27 -33 14 0 -9 -2 -17 -5
-17 -12 0 -104 104 -99 112 3 4 15 8 26 8 12 0 40 12 63 27 l43 27 -22 29
c-17 23 -21 43 -21 101 0 47 5 79 14 89 17 22 5 38 -51 66 -39 19 -60 20 -429
21 l-388 0 -3 -52 c-3 -61 23 -110 88 -166 26 -22 32 -32 20 -32 -9 0 -14 -4
-11 -10 3 -5 1 -10 -5 -10 -6 0 -9 -4 -5 -9 3 -5 1 -12 -5 -16 -6 -4 -8 -10
-5 -15 3 -4 -1 -10 -9 -13 -9 -4 -22 5 -32 21 -10 15 -23 33 -31 40 -7 7 -12
28 -11 48 1 24 -5 41 -20 55 -12 11 -22 21 -22 24 0 5 24 0 38 -8 10 -7 10 -3
0 18 -8 18 -14 22 -20 13 -4 -7 -8 -8 -8 -3 -1 19 -29 -40 -81 -170 -29 -71
-55 -133 -58 -137 -3 -4 -44 91 -90 210 l-83 217 -77 0 c-60 0 -75 -3 -73 -14
2 -11 0 -12 -10 -3 -8 6 -63 12 -126 14 l-112 3 -1 -165z m1246 66 c19 -17 22
-24 10 -18 -26 13 -60 52 -68 77 -5 15 -3 14 11 -5 9 -14 31 -38 47 -54z
m1560 -129 l61 -172 -69 -3 c-38 -2 -71 -1 -73 1 -2 2 10 45 27 96 l32 93 -27
77 c-14 42 -26 80 -26 85 0 25 19 -20 75 -177z m-1633 47 c2 -45 0 -58 -14
-65 -9 -5 -66 -9 -126 -9 l-110 0 -5 58 c-2 31 -3 60 0 65 2 4 60 7 128 7
l123 0 4 -56z m324 33 c37 -32 36 -83 -1 -115 -23 -20 -36 -22 -94 -20 l-66 3
-3 64 c-4 90 -3 91 72 91 54 0 70 -4 92 -23z m-1986 -71 c0 -8 -64 -44 -90
-50 -14 -4 -2 6 25 22 49 29 65 36 65 28z m1866 -100 c3 -7 23 -22 45 -31 47
-22 45 -32 -2 -12 -36 15 -80 57 -60 57 6 0 14 -6 17 -14z m-201 -121 l0 -60
-125 -5 c-69 -3 -126 -5 -127 -5 0 0 -4 31 -8 68 l-7 68 133 -3 134 -3 0 -60z
m-1120 -7 c35 -36 36 -38 10 -21 -36 25 -72 63 -59 63 6 0 28 -19 49 -42z"/>
<path d="M4860 2588 c1 -121 18 -210 54 -280 15 -28 25 -53 22 -55 -6 -6 -44
59 -60 103 -14 38 -15 37 -15 -62 l-1 -101 41 -47 c47 -53 45 -59 -6 -15 l-35
31 0 -56 0 -56 266 2 265 3 22 55 22 55 123 0 123 0 22 -55 22 -55 86 -3 86
-3 7 56 c15 133 29 206 38 203 6 -2 21 -30 34 -61 13 -32 33 -74 45 -94 l22
-36 40 78 c43 87 43 86 -3 195 -17 41 -44 125 -59 185 l-28 110 -75 3 c-63 2
-77 0 -82 -14 -3 -9 -16 -82 -27 -163 -11 -80 -22 -148 -25 -150 -9 -9 -22 17
-64 129 -48 128 -62 152 -54 94 4 -27 3 -35 -4 -25 -6 9 -19 11 -35 7 -16 -4
-27 -1 -30 7 -4 8 -6 7 -6 -3 -1 -8 -10 -21 -20 -27 -18 -11 -18 -16 -6 -55 7
-24 22 -65 33 -93 31 -78 43 -127 29 -118 -15 9 -18 10 -89 11 l-57 2 33 94
32 95 -32 96 c-17 53 -35 96 -40 96 -4 0 -40 -87 -80 -193 -40 -106 -81 -215
-92 -243 l-20 -50 -88 -3 c-49 -2 -108 0 -131 3 l-43 6 -2 247 -3 247 -77 3
-78 3 0 -103z"/>
<path d="M6261 2629 c-15 -75 -78 -262 -118 -350 -17 -37 -51 -101 -77 -143
-25 -41 -46 -78 -46 -81 0 -3 17 -5 38 -5 32 0 41 6 66 41 34 48 45 46 18 -3
l-20 -35 34 0 c32 0 34 3 101 133 37 74 70 130 74 126 6 -6 39 -222 39 -253 0
-11 62 -11 188 -3 l92 7 0 128 0 127 119 4 c116 3 120 4 158 34 21 17 44 42
50 55 11 21 13 14 14 -56 1 -44 1 -87 0 -95 -1 -9 8 -5 23 12 13 15 37 30 53
34 25 6 23 3 -17 -27 -58 -45 -62 -72 -18 -130 124 -163 417 -134 484 49 29
78 34 71 34 -41 l0 -107 75 0 74 0 3 196 3 196 -50 47 c-60 57 -88 73 -110 65
-9 -4 -15 -3 -14 2 1 5 1 35 0 67 l-1 57 -70 0 -70 0 -1 -52 c-1 -29 -3 -93
-5 -143 -2 -49 -4 -123 -4 -164 0 -70 -2 -75 -34 -107 -28 -28 -42 -34 -75
-34 -23 0 -56 7 -72 16 -52 26 -59 60 -59 283 0 110 -3 201 -7 203 -5 2 -38 2
-75 0 l-67 -4 0 -115 c0 -63 -2 -118 -5 -121 -4 -3 -7 13 -7 36 -1 23 -2 45
-4 50 -9 31 -24 47 -45 49 -56 6 -68 8 -64 14 7 11 -22 18 -37 9 -8 -5 -16 -5
-20 1 -3 6 -21 12 -40 14 -79 8 -205 38 -223 53 -13 11 -17 12 -11 3 6 -11 4
-13 -9 -8 -14 6 -15 4 -5 -16 6 -12 23 -34 37 -49 14 -16 21 -28 16 -28 -14 0
-64 53 -64 69 0 7 -4 10 -8 7 -5 -3 -7 -76 -4 -163 5 -201 -8 -193 -38 21 -12
87 -24 164 -26 170 -3 7 -17 11 -34 8 -25 -4 -30 -10 -40 -53 -17 -70 -29 -69
-23 1 l6 60 -35 0 c-35 0 -35 0 -47 -61z m558 -95 c12 -15 21 -37 21 -49 0
-12 -9 -34 -21 -49 -19 -24 -26 -26 -95 -26 l-74 0 0 75 0 75 74 0 c69 0 76
-2 95 -26z m671 -79 c0 -9 -64 -45 -80 -45 -8 1 5 12 30 25 51 27 50 27 50 20z
m-1145 -105 c-4 -12 -9 -19 -12 -17 -3 3 -2 15 2 27 4 12 9 19 12 17 3 -3 2
-15 -2 -27z"/>
<path d="M8285 2665 c-33 -14 -65 -32 -71 -40 -19 -26 -34 -17 -34 20 l0 35
-75 0 -75 0 -2 -160 c-1 -88 -3 -175 -4 -192 -2 -28 5 -40 49 -80 29 -26 47
-48 40 -48 -14 0 -73 56 -120 115 -18 22 -57 72 -88 110 -60 75 -126 151 -105
123 10 -15 10 -18 -1 -19 -8 0 -4 -4 9 -9 14 -6 22 -18 22 -34 0 -13 6 -26 13
-29 7 -3 0 -9 -15 -16 -16 -6 -28 -16 -28 -23 0 -9 3 -9 12 0 15 15 38 16 38
1 0 -5 -4 -8 -9 -5 -13 8 -21 -18 -10 -35 7 -12 9 -12 9 0 0 8 2 12 5 9 9 -8
-6 -38 -16 -32 -5 3 -9 0 -9 -5 0 -6 4 -11 9 -11 5 0 7 -8 4 -19 -3 -13 26
-58 94 -145 l98 -126 77 0 78 0 0 30 c0 17 3 30 8 30 4 0 26 -13 50 -29 73
-50 201 -65 298 -36 109 34 191 132 201 243 4 41 2 50 -22 72 -25 23 -34 25
-151 28 l-124 4 0 -56 0 -55 64 -3 64 -3 -12 -35 c-6 -20 -25 -44 -46 -58 -29
-20 -45 -23 -91 -20 -94 7 -153 70 -166 177 -4 39 0 60 22 110 31 68 65 99
119 108 70 11 119 -10 160 -68 l15 -22 71 27 c38 15 70 30 70 32 0 14 -57 87
-84 107 -85 64 -230 77 -341 32z m-61 -184 c4 -6 3 -11 -2 -11 -15 0 -35 85
-26 111 7 20 9 14 15 -32 3 -31 9 -61 13 -68z m-357 -68 c-3 -10 -5 -4 -5 12
0 17 2 24 5 18 2 -7 2 -21 0 -30z m792 -142 c10 -6 -1 -8 -30 -4 -24 3 -46 7
-48 9 -10 9 65 3 78 -5z"/>
<path d="M2996 2575 c-3 -9 -11 -13 -17 -9 -8 4 -9 3 -5 -4 4 -7 11 -12 16
-12 9 0 23 31 16 37 -2 2 -6 -3 -10 -12z"/>
<path d="M7765 2580 c-3 -5 -1 -10 4 -10 6 0 11 5 11 10 0 6 -2 10 -4 10 -3 0
-8 -4 -11 -10z"/>
<path d="M1836 2477 c3 -10 9 -15 12 -12 3 3 0 11 -7 18 -10 9 -11 8 -5 -6z"/>
<path d="M4210 2430 c-13 -8 -12 -10 3 -10 9 0 17 5 17 10 0 12 -1 12 -20 0z"/>
<path d="M2696 2408 c3 -4 11 -5 19 -1 21 7 19 12 -4 10 -11 0 -18 -5 -15 -9z"/>
<path d="M4132 2411 c-11 -6 -10 -10 0 -19 11 -8 14 -7 14 9 0 10 0 19 -1 19
0 0 -6 -4 -13 -9z"/>
<path d="M7781 2360 c18 -22 34 -40 35 -40 9 0 -39 69 -52 74 -8 3 0 -12 17
-34z"/>
<path d="M4248 2323 c7 -3 16 -2 19 1 4 3 -2 6 -13 5 -11 0 -14 -3 -6 -6z"/>
<path d="M794 1548 c-30 -97 -87 -227 -102 -231 -9 -3 6 -5 33 -4 28 0 40 2
28 4 -26 5 -28 12 -11 48 9 19 19 25 43 25 34 0 48 -11 59 -47 6 -17 2 -22
-16 -26 -13 -2 9 -4 47 -4 39 0 60 2 49 4 -18 3 -30 27 -64 124 -24 66 -46
122 -51 124 -4 3 -11 -5 -15 -17z m10 -92 c3 -13 9 -31 12 -40 5 -13 -1 -16
-26 -16 -25 0 -31 3 -26 16 3 9 9 27 12 40 3 13 10 24 14 24 4 0 11 -11 14
-24z"/>
<path d="M1033 1560 c-27 -11 -61 -63 -69 -106 -7 -39 25 -117 55 -133 11 -7
48 -10 81 -9 l60 2 -1 41 c0 35 -2 38 -12 21 -23 -37 -47 -56 -71 -56 -38 0
-56 35 -56 106 0 74 15 121 41 129 24 8 65 -17 74 -45 10 -32 21 -23 17 14 -3
30 -8 34 -40 40 -46 7 -52 7 -79 -4z"/>
<path d="M2503 1554 c-20 -10 -40 -32 -54 -60 -28 -58 -20 -105 26 -151 28
-28 40 -33 80 -33 40 0 52 5 81 34 30 30 34 40 34 86 0 62 -22 104 -66 125
-40 19 -61 19 -101 -1z m88 -13 c22 -17 24 -27 24 -106 0 -97 -13 -119 -70
-113 -43 4 -56 37 -53 127 3 63 7 76 27 92 29 24 43 24 72 0z"/>
<path d="M3444 1561 c-78 -33 -95 -177 -27 -231 21 -16 38 -20 90 -18 l63 3
-1 40 c0 35 -2 38 -12 21 -37 -59 -84 -73 -111 -34 -18 25 -22 141 -7 181 19
49 70 45 99 -6 l17 -32 3 33 c2 19 2 35 0 37 -9 9 -96 13 -114 6z"/>
<path d="M3682 1555 c-23 -10 -39 -28 -53 -61 -26 -58 -19 -102 23 -149 26
-31 36 -35 77 -35 78 0 121 48 121 135 0 88 -88 146 -168 110z m85 -10 c25
-17 37 -85 27 -150 -8 -57 -27 -77 -68 -73 -41 4 -56 36 -56 121 0 59 3 71 25
92 28 29 42 31 72 10z"/>
<path d="M4274 1554 c-42 -21 -64 -62 -64 -124 0 -46 4 -56 34 -86 29 -29 41
-34 79 -34 50 0 88 24 112 70 20 39 19 66 -6 117 -33 67 -91 89 -155 57z m87
-13 c20 -16 24 -29 27 -92 4 -95 -10 -123 -61 -127 -35 -3 -39 -1 -53 35 -24
56 -15 160 15 184 29 24 43 24 72 0z"/>
<path d="M5056 1549 c-57 -44 -73 -126 -36 -186 26 -44 49 -54 120 -51 l60 3
0 40 c-1 38 -1 39 -16 20 -34 -46 -45 -55 -68 -55 -39 0 -56 35 -56 112 0 36
4 78 9 91 19 48 84 43 97 -8 9 -36 24 -31 24 9 0 31 -3 34 -37 40 -58 9 -68 8
-97 -15z"/>
<path d="M5285 1558 c-28 -16 -35 -28 -35 -64 0 -37 22 -59 70 -69 63 -13 89
-55 54 -89 -26 -27 -69 -20 -97 15 l-25 32 -3 -34 -4 -34 66 -3 c62 -2 69 -1
88 24 45 57 17 118 -64 139 -63 15 -79 39 -46 66 32 26 48 24 81 -11 15 -16
31 -30 34 -30 9 0 7 48 -1 53 -21 13 -100 16 -118 5z"/>
<path d="M5682 1549 c-5 -13 -26 -70 -47 -126 -30 -80 -42 -103 -59 -106 -11
-2 4 -4 34 -4 30 0 45 2 33 4 -26 5 -27 11 -13 47 8 21 16 26 44 26 25 0 38
-6 46 -19 15 -29 12 -49 -7 -54 -10 -3 14 -5 52 -5 40 0 60 3 46 7 -19 5 -30
26 -65 123 -22 64 -44 120 -48 124 -4 4 -11 -4 -16 -17z m16 -116 c11 -32 10
-33 -19 -33 -32 0 -34 3 -18 49 13 36 21 32 37 -16z"/>
<path d="M7176 1547 c-49 -49 -28 -107 44 -122 49 -10 67 -21 73 -45 7 -27
-24 -60 -56 -60 -28 0 -67 26 -67 46 0 8 -4 14 -10 14 -5 0 -10 -15 -10 -33
l0 -33 64 -2 c59 -2 66 0 85 24 45 58 19 115 -64 140 -47 13 -55 19 -55 40 0
36 41 52 75 30 14 -10 29 -24 32 -32 9 -24 23 -15 23 16 0 22 -5 30 -17 30
-10 0 -35 3 -55 6 -31 5 -41 2 -62 -19z"/>
<path d="M8167 1550 c-19 -16 -27 -30 -27 -54 0 -39 22 -61 70 -71 63 -13 89
-55 54 -89 -26 -27 -69 -20 -97 15 l-25 32 -3 -34 -4 -34 66 -3 c62 -2 69 -1
88 24 45 57 17 118 -64 139 -63 15 -79 39 -46 66 32 26 48 24 81 -11 34 -36
40 -37 40 -6 0 30 -3 32 -60 41 -38 5 -50 3 -73 -15z"/>
<path d="M8395 1558 c-28 -16 -35 -28 -35 -64 0 -37 22 -59 70 -69 63 -13 89
-55 54 -89 -26 -27 -69 -20 -97 15 l-25 32 -3 -34 -4 -34 63 -3 c55 -2 65 0
87 22 52 52 18 127 -63 141 -67 11 -82 52 -28 77 20 9 30 8 51 -6 14 -9 25
-23 25 -31 0 -8 7 -15 15 -15 15 0 22 45 8 53 -21 13 -100 16 -118 5z"/>
<path d="M493 1553 c15 -4 17 -18 17 -118 0 -110 -1 -114 -22 -118 -13 -2 11
-4 52 -4 41 0 63 2 48 4 -27 4 -28 7 -28 59 0 52 2 55 22 52 12 -2 28 -14 35
-28 12 -23 13 -20 12 35 0 50 -2 56 -11 38 -11 -24 -34 -36 -49 -27 -5 3 -9
27 -9 55 l0 49 45 0 c40 0 47 -4 65 -32 l20 -33 0 38 0 37 -107 -1 c-60 -1
-100 -3 -90 -6z"/>
<path d="M1221 1553 c14 -3 17 -22 21 -110 3 -89 6 -107 23 -119 26 -19 115
-18 143 2 20 14 22 23 22 119 0 100 1 104 23 108 12 2 0 4 -28 4 -27 0 -40 -2
-27 -4 21 -4 22 -9 22 -94 0 -82 -2 -92 -25 -114 -27 -28 -53 -32 -77 -12 -13
9 -17 32 -18 102 -2 116 -3 113 18 118 9 3 -12 5 -48 5 -36 0 -58 -2 -49 -5z"/>
<path d="M1533 1553 c15 -4 17 -18 17 -118 0 -110 -1 -114 -22 -118 -13 -2 27
-5 88 -6 108 -1 112 0 118 22 8 32 7 57 -3 57 -5 0 -12 -11 -15 -25 -8 -31
-38 -47 -79 -43 l-32 3 -3 112 c-3 109 -2 112 20 116 13 2 -6 4 -42 4 -36 1
-57 -1 -47 -4z"/>
<path d="M1758 1520 c-4 -42 6 -54 17 -20 9 28 33 50 56 50 19 0 19 -6 17
-112 -3 -110 -3 -112 -28 -119 -15 -4 5 -7 50 -7 41 1 65 3 53 5 -22 4 -23 8
-23 119 0 114 0 115 23 112 13 -2 28 -15 37 -35 20 -43 32 -41 28 5 l-3 37
-111 3 -112 3 -4 -41z"/>
<path d="M2031 1553 c9 -2 35 -30 58 -63 36 -51 41 -65 41 -113 0 -50 -2 -56
-22 -60 -13 -2 11 -4 52 -5 45 0 65 3 50 7 -24 7 -25 10 -21 66 2 47 10 69 38
111 19 29 43 55 52 57 9 3 -4 5 -29 5 -25 0 -37 -2 -27 -5 21 -5 21 -5 -13
-55 -14 -21 -29 -38 -35 -38 -5 0 -22 19 -37 43 -25 38 -26 43 -10 49 9 4 -12
6 -48 6 -36 0 -58 -2 -49 -5z"/>
<path d="M2743 1553 c15 -4 17 -18 17 -118 0 -110 -1 -114 -22 -118 -13 -2 11
-4 52 -4 41 0 63 2 48 4 -27 4 -28 7 -28 59 0 47 3 54 20 54 11 0 26 -12 34
-27 15 -27 15 -27 15 32 0 50 -2 57 -11 40 -13 -23 -28 -35 -45 -35 -9 0 -13
18 -13 55 l0 55 45 0 c40 0 47 -4 65 -32 l20 -33 0 38 0 37 -107 -1 c-60 -1
-100 -3 -90 -6z"/>
<path d="M3108 1553 c21 -4 22 -8 22 -114 0 -104 -1 -110 -22 -119 -16 -6 14
-9 95 -9 l117 -1 0 46 c0 27 -4 43 -10 39 -5 -3 -10 -14 -10 -24 0 -27 -24
-43 -75 -49 l-45 -5 0 62 c0 46 3 61 14 61 16 0 46 -26 46 -41 0 -5 4 -9 9 -9
7 0 8 79 2 110 -1 3 -7 -6 -14 -20 -7 -14 -23 -26 -35 -28 -20 -3 -22 1 -22
47 l0 51 45 0 c36 0 47 -4 61 -25 22 -33 31 -32 26 5 l-4 30 -112 -1 c-61 -1
-101 -4 -88 -6z"/>
<path d="M3913 1553 c15 -4 17 -18 17 -118 0 -100 -2 -114 -17 -118 -10 -3 5
-5 32 -4 28 0 40 2 28 4 -22 4 -23 8 -23 109 0 58 4 103 8 100 5 -3 40 -53 78
-110 38 -58 75 -106 82 -106 9 0 12 30 12 119 0 105 2 120 18 124 9 3 -5 5
-33 4 -27 0 -40 -2 -27 -4 20 -4 22 -10 22 -74 0 -38 -2 -69 -5 -69 -2 0 -27
34 -55 75 l-51 75 -52 -1 c-29 -1 -44 -3 -34 -6z"/>
<path d="M4508 1553 c21 -4 22 -8 22 -114 0 -104 -1 -110 -22 -119 -18 -7 -12
-9 27 -8 28 0 40 3 28 5 -22 4 -23 9 -23 99 0 61 4 93 10 89 6 -3 10 -11 10
-17 0 -22 52 -178 59 -178 4 0 20 42 35 93 16 50 32 96 37 102 5 5 9 -31 9
-87 0 -92 -1 -97 -22 -101 -13 -2 6 -4 42 -4 36 -1 57 1 48 4 -16 4 -18 18
-18 118 0 100 2 114 18 118 9 3 -5 5 -33 4 l-49 -2 -21 -67 c-12 -37 -24 -70
-28 -74 -3 -4 -16 28 -29 70 l-22 76 -51 -1 c-27 -1 -40 -4 -27 -6z"/>
<path d="M4848 1550 c22 -9 23 -13 20 -117 -3 -105 -4 -107 -28 -114 -15 -4 5
-7 50 -7 41 1 65 3 53 5 -22 4 -23 8 -23 118 0 100 2 114 18 118 9 3 -12 5
-48 5 -49 1 -59 -2 -42 -8z"/>
<path d="M5873 1553 c15 -4 17 -18 17 -118 0 -110 -1 -114 -22 -118 -13 -2 2
-4 32 -4 30 0 45 2 33 4 -22 4 -23 8 -23 109 0 57 1 104 3 104 2 0 37 -49 78
-110 41 -60 79 -109 85 -110 6 0 12 15 12 33 2 208 2 205 20 210 9 3 -5 5 -33
4 -27 0 -40 -2 -27 -4 20 -4 22 -10 22 -74 0 -38 -3 -69 -7 -69 -5 0 -29 34
-56 75 l-48 75 -52 -1 c-28 -1 -44 -3 -34 -6z"/>
<path d="M6178 1553 c21 -4 22 -8 22 -118 0 -110 -1 -114 -22 -118 -13 -2 15
-5 60 -6 58 -1 94 4 117 15 58 27 82 112 50 174 -27 51 -50 60 -155 59 -52 -1
-85 -4 -72 -6z m168 -28 c38 -58 25 -178 -22 -195 -14 -6 -36 -10 -50 -10
l-24 0 0 115 0 115 40 0 c31 0 43 -5 56 -25z"/>
<path d="M6593 1553 c15 -4 17 -18 17 -118 0 -110 -1 -114 -22 -118 -13 -2 16
-5 64 -6 48 0 98 3 112 9 53 20 59 86 9 109 -26 12 -27 13 -8 23 40 22 47 64
17 91 -15 14 -38 17 -113 16 -52 -1 -86 -3 -76 -6z m151 -25 c7 -11 7 -26 0
-45 -8 -23 -16 -29 -47 -31 l-37 -3 0 51 0 51 36 -3 c21 -2 42 -10 48 -20z
m-13 -98 c14 -8 19 -21 19 -49 0 -45 -18 -64 -57 -59 -25 3 -28 7 -31 47 -2
24 -1 50 2 57 6 17 39 18 67 4z"/>
<path d="M6858 1553 c21 -4 22 -9 22 -107 0 -125 8 -136 92 -136 81 0 92 16
96 140 3 82 7 100 20 103 10 3 -5 5 -33 4 -27 0 -40 -2 -27 -4 21 -4 22 -9 22
-97 0 -103 -8 -122 -56 -132 -53 -10 -64 12 -64 126 0 85 2 99 18 103 9 3 -12
5 -48 4 -36 0 -55 -2 -42 -4z"/>
<path d="M7388 1550 c22 -9 23 -13 20 -117 -3 -105 -4 -107 -28 -114 -15 -4 5
-7 50 -7 41 1 65 3 53 5 -22 4 -23 8 -23 118 0 100 2 114 18 118 9 3 -12 5
-48 5 -49 1 -59 -2 -42 -8z"/>
<path d="M7563 1553 c15 -4 17 -18 17 -118 0 -110 -1 -114 -22 -118 -13 -2 2
-4 32 -4 30 0 45 2 33 4 -22 4 -23 8 -23 109 0 57 1 104 3 104 2 0 37 -49 78
-110 41 -60 77 -110 82 -110 4 0 7 54 7 119 0 116 1 120 23 124 12 2 0 4 -28
4 -27 0 -40 -2 -27 -4 20 -4 22 -10 22 -75 0 -83 -5 -82 -70 18 l-42 64 -52
-1 c-28 -1 -43 -3 -33 -6z"/>
<path d="M7868 1553 c21 -4 22 -8 22 -114 0 -104 -1 -110 -22 -119 -16 -6 14
-9 95 -9 l117 -1 0 46 c0 27 -4 43 -10 39 -5 -3 -10 -15 -10 -25 0 -27 -38
-50 -82 -50 l-38 0 0 60 c0 45 3 60 14 60 16 0 46 -26 46 -41 0 -5 5 -9 10 -9
11 0 14 93 3 103 -3 4 -11 -3 -17 -16 -6 -12 -22 -23 -34 -25 -20 -3 -22 1
-22 47 l0 51 45 0 c36 0 47 -4 61 -25 22 -33 31 -32 26 5 l-4 30 -112 -1 c-61
-1 -101 -4 -88 -6z"/>
<path d="M1828 1090 c21 -9 22 -15 22 -114 0 -102 1 -106 25 -122 18 -12 39
-15 76 -12 75 8 83 20 87 143 4 86 7 105 21 108 9 3 -6 5 -34 5 -39 1 -45 -1
-27 -8 21 -9 22 -15 22 -103 0 -105 -11 -127 -66 -127 -48 0 -54 14 -54 122 0
93 1 99 23 108 16 6 4 9 -48 9 -52 0 -64 -3 -47 -9z"/>
<path d="M2128 1090 c21 -9 22 -15 22 -120 0 -106 -1 -110 -22 -110 -12 0 -18
-3 -14 -7 10 -11 86 -12 86 -2 0 5 -9 9 -20 9 -19 0 -20 7 -20 100 0 55 3 100
8 100 4 -1 40 -50 81 -110 41 -61 78 -110 83 -110 4 0 8 54 8 120 0 103 2 120
18 129 13 8 5 10 -33 9 -27 0 -40 -3 -27 -5 20 -4 22 -10 22 -79 0 -41 -2 -74
-4 -74 -2 0 -27 36 -56 80 l-53 80 -51 -1 c-41 0 -46 -2 -28 -9z"/>
<path d="M2430 1093 c26 -10 30 -26 30 -130 0 -96 -1 -103 -20 -103 -11 0 -20
-4 -20 -8 0 -9 117 -8 127 2 3 3 -3 6 -15 6 -21 0 -22 4 -22 110 0 105 1 111
23 120 16 6 4 9 -48 9 -38 -1 -63 -3 -55 -6z"/>
<path d="M2596 1090 c14 -5 31 -36 54 -97 56 -149 61 -158 71 -142 4 8 25 63
46 123 27 79 42 110 57 116 15 6 7 9 -29 9 -39 0 -45 -2 -28 -9 l22 -9 -26
-76 c-15 -41 -30 -72 -34 -68 -4 5 -19 39 -33 76 l-25 68 22 9 c16 6 3 9 -48
9 -48 0 -63 -3 -49 -9z"/>
<path d="M2898 1090 c21 -9 22 -15 22 -120 0 -106 -1 -110 -22 -110 -12 0 -19
-3 -16 -6 9 -8 116 -12 176 -6 l52 5 0 41 -1 41 -16 -30 c-21 -40 -30 -45 -80
-45 l-43 0 0 56 c0 52 1 55 23 52 12 -2 26 -13 32 -25 16 -38 25 -26 25 32 0
58 -9 70 -25 33 -6 -13 -20 -24 -32 -26 -21 -3 -23 0 -23 48 0 58 10 66 66 56
24 -5 38 -15 46 -32 16 -34 25 -30 20 11 l-4 35 -112 -1 c-76 0 -104 -3 -88
-9z"/>
<path d="M3188 1090 c21 -9 22 -15 22 -120 0 -106 -1 -110 -22 -110 -12 0 -18
-3 -15 -7 10 -9 118 -10 124 0 2 4 -5 7 -16 7 -19 0 -21 6 -21 55 0 51 2 55
23 55 33 0 57 -30 57 -71 0 -43 15 -59 53 -59 26 0 27 1 13 16 -9 8 -16 29
-16 45 0 18 -9 39 -23 53 l-23 23 28 16 c31 18 37 51 14 82 -12 16 -29 20
-117 22 -74 2 -97 0 -81 -7z m154 -23 c25 -39 -4 -87 -53 -87 -28 0 -29 2 -29
48 0 27 3 52 7 56 11 11 65 -2 75 -17z"/>
<path d="M3491 1081 c-23 -23 -27 -69 -8 -93 6 -9 32 -22 57 -28 25 -7 51 -17
58 -22 21 -17 14 -56 -13 -74 -32 -21 -76 -5 -96 34 l-13 27 -4 -33 c-2 -19
-2 -36 0 -38 2 -2 29 -6 60 -10 52 -6 58 -4 82 19 29 29 34 80 12 110 -8 10
-38 25 -67 35 -45 14 -54 21 -54 41 0 50 69 54 95 6 19 -35 32 -31 27 7 -3 31
-5 32 -59 36 -47 3 -60 0 -77 -17z"/>
<path d="M3708 1090 c21 -9 22 -15 22 -120 0 -106 -1 -110 -22 -110 -12 0 -19
-2 -16 -5 9 -10 128 -12 128 -3 0 4 -9 8 -20 8 -19 0 -20 7 -20 110 0 105 1
111 23 120 16 6 4 9 -48 9 -52 0 -64 -3 -47 -9z"/>
<path d="M3858 1055 c-4 -52 4 -58 22 -15 13 33 44 55 60 45 6 -3 10 -55 10
-116 0 -102 -1 -109 -20 -109 -11 0 -20 -3 -20 -8 0 -4 29 -7 65 -7 36 0 65 3
65 8 0 4 -9 7 -20 7 -19 0 -20 7 -20 108 0 60 3 111 6 115 13 13 55 -18 61
-45 9 -44 25 -33 21 15 l-3 42 -111 3 -112 3 -4 -46z"/>
<path d="M4139 1084 c36 -26 94 -123 93 -158 0 -62 -2 -66 -24 -66 -12 0 -19
-2 -16 -5 9 -9 128 -13 128 -4 0 5 -7 9 -15 9 -15 0 -19 17 -15 80 2 41 62
137 93 150 16 6 7 9 -33 8 -30 0 -45 -3 -32 -5 12 -2 22 -7 22 -10 0 -11 -55
-93 -62 -93 -4 0 -21 20 -38 44 -28 41 -29 46 -13 55 14 8 2 10 -47 11 -62 0
-64 -1 -41 -16z"/>
<path d="M4580 1072 c-32 -33 -52 -91 -43 -132 9 -48 53 -91 99 -97 78 -10
134 43 134 127 0 80 -45 130 -118 130 -34 0 -49 -6 -72 -28z m107 10 c32 -20
45 -143 20 -192 -7 -13 -25 -29 -40 -34 -43 -15 -70 18 -75 93 -5 69 1 103 24
125 16 17 51 21 71 8z"/>
<path d="M4848 1090 c21 -9 22 -15 22 -120 0 -103 -1 -110 -20 -110 -11 0 -20
-3 -20 -7 0 -10 117 -9 127 0 3 4 -3 7 -15 7 -20 0 -22 5 -22 48 0 27 3 52 6
55 10 10 44 -12 44 -28 0 -8 5 -15 10 -15 6 0 10 25 10 55 0 60 -5 68 -20 30
-6 -16 -17 -25 -30 -25 -19 0 -21 5 -18 53 l3 52 37 -1 c43 -1 68 -18 68 -45
0 -11 5 -19 11 -19 6 0 9 16 7 38 l-3 37 -110 2 c-75 1 -103 -1 -87 -7z"/>
<path d="M5208 1090 c21 -9 22 -15 22 -120 0 -103 -1 -110 -20 -110 -11 0 -20
-4 -20 -8 0 -9 208 -8 216 1 3 3 4 22 2 43 l-3 39 -17 -37 c-16 -36 -20 -38
-62 -38 l-46 0 0 114 c0 111 1 115 23 119 12 2 -9 5 -48 5 -51 1 -64 -2 -47
-8z"/>
<path d="M5561 1079 c-5 -13 -26 -68 -46 -121 -31 -80 -41 -98 -58 -98 -35 0
-10 -12 32 -15 23 -2 43 1 47 6 3 5 -4 9 -15 9 -23 0 -26 12 -11 41 8 14 21
19 49 19 32 0 40 -4 45 -22 9 -34 8 -38 -11 -38 -9 0 -14 -3 -11 -6 8 -8 118
-11 118 -3 0 4 -8 9 -17 11 -12 3 -31 40 -57 114 -22 60 -43 113 -47 118 -5 5
-12 -1 -18 -15z m16 -111 c13 -30 9 -38 -24 -38 -25 0 -29 14 -13 56 11 29 19
25 37 -18z"/>
<path d="M5753 1089 c14 -9 17 -26 17 -119 0 -91 -3 -110 -15 -110 -8 0 -15
-3 -15 -8 0 -4 18 -8 40 -8 22 -1 40 2 40 7 0 5 -7 9 -15 9 -12 0 -15 17 -15
93 1 103 6 100 40 -20 13 -46 29 -83 34 -83 6 0 22 37 35 83 35 120 40 123 41
20 0 -76 -3 -93 -15 -93 -8 0 -15 -3 -15 -7 0 -10 107 -9 117 0 3 4 -3 7 -15
7 -21 0 -22 4 -22 110 0 105 1 111 23 120 17 7 11 9 -28 7 l-50 -2 -26 -80
c-30 -90 -30 -90 -64 30 l-16 55 -47 0 c-37 -1 -43 -3 -29 -11z"/>
<path d="M6093 1094 c20 -6 20 -8 22 -136 0 -88 -1 -98 -17 -98 -10 0 -18 -3
-18 -7 0 -5 27 -8 60 -8 33 -1 60 3 60 7 0 4 -7 8 -15 8 -11 0 -15 12 -15 50
l0 50 39 0 c76 0 120 71 70 116 -17 15 -38 19 -113 21 -50 1 -83 -1 -73 -3z
m137 -24 c37 -37 14 -100 -37 -100 -22 0 -23 4 -23 60 0 53 2 60 20 60 11 0
29 -9 40 -20z"/>
<path d="M6358 1090 c21 -9 22 -15 22 -110 0 -88 2 -102 21 -121 18 -18 30
-21 76 -17 80 7 87 18 91 143 3 87 7 105 20 108 10 3 -5 5 -33 5 -39 1 -45 -1
-27 -8 21 -9 22 -15 22 -103 0 -105 -11 -127 -66 -127 -48 0 -54 14 -54 122 0
93 1 99 23 108 16 6 4 9 -48 9 -52 0 -64 -3 -47 -9z"/>
<path d="M6658 1090 c21 -9 22 -15 22 -120 0 -91 -3 -110 -15 -110 -8 0 -15
-4 -15 -8 0 -9 78 -8 87 2 4 3 -3 6 -15 6 -21 0 -22 4 -22 102 0 64 4 98 9 93
6 -6 41 -55 78 -109 78 -114 96 -127 93 -70 -1 22 -2 78 -1 126 1 74 4 87 19
91 9 3 -5 5 -33 5 -39 1 -45 -1 -27 -8 20 -8 22 -16 22 -80 0 -39 -4 -69 -9
-66 -4 3 -30 39 -57 81 l-49 75 -55 -1 c-43 0 -50 -2 -32 -9z"/>
<path d="M7001 1074 c-117 -98 -4 -288 129 -219 17 9 33 27 36 41 4 14 16 29
28 34 14 6 -3 8 -54 8 -41 0 -65 -3 -52 -5 16 -3 22 -11 22 -32 0 -51 -43 -68
-80 -31 -17 17 -20 33 -20 98 0 90 15 122 59 122 28 0 71 -35 71 -58 0 -7 5
-12 10 -12 6 0 10 15 10 34 0 31 -3 34 -37 40 -66 10 -91 7 -122 -20z"/>
</g>
</svg>
